<svg width="47" height="47" viewBox="0 0 47 47" fill="none" xmlns="http://www.w3.org/2000/svg">
<path d="M0.5 3C0.5 1.61929 1.61929 0.5 3 0.5H44C45.3807 0.5 46.5 1.61929 46.5 3V44C46.5 45.3807 45.3807 46.5 44 46.5H3C1.61929 46.5 0.5 45.3807 0.5 44V3Z" fill="#FFAEC9"/>
<path d="M0.5 3C0.5 1.61929 1.61929 0.5 3 0.5H44C45.3807 0.5 46.5 1.61929 46.5 3V44C46.5 45.3807 45.3807 46.5 44 46.5H3C1.61929 46.5 0.5 45.3807 0.5 44V3Z" stroke="black"/>
<path d="M36.7071 23.7071C37.0976 23.3166 37.0976 22.6834 36.7071 22.2929L30.3431 15.9289C29.9526 15.5384 29.3195 15.5384 28.9289 15.9289C28.5384 16.3195 28.5384 16.9526 28.9289 17.3431L34.5858 23L28.9289 28.6569C28.5384 29.0474 28.5384 29.6805 28.9289 30.0711C29.3195 30.4616 29.9526 30.4616 30.3431 30.0711L36.7071 23.7071ZM12 24L36 24V22L12 22V24Z" fill="black"/>
</svg>
