<svg width="47" height="47" viewBox="0 0 47 47" fill="none" xmlns="http://www.w3.org/2000/svg">
<path d="M0.5 3C0.5 1.61929 1.61929 0.5 3 0.5H44C45.3807 0.5 46.5 1.61929 46.5 3V44C46.5 45.3807 45.3807 46.5 44 46.5H3C1.61929 46.5 0.5 45.3807 0.5 44V3Z" fill="#FFAEC9" fill-opacity="0.3"/>
<path d="M0.5 3C0.5 1.61929 1.61929 0.5 3 0.5H44C45.3807 0.5 46.5 1.61929 46.5 3V44C46.5 45.3807 45.3807 46.5 44 46.5H3C1.61929 46.5 0.5 45.3807 0.5 44V3Z" stroke="black"/>
<path d="M11.2929 22.2929C10.9024 22.6834 10.9024 23.3166 11.2929 23.7071L17.6569 30.0711C18.0474 30.4616 18.6805 30.4616 19.0711 30.0711C19.4616 29.6805 19.4616 29.0474 19.0711 28.6569L13.4142 23L19.0711 17.3431C19.4616 16.9526 19.4616 16.3195 19.0711 15.9289C18.6805 15.5384 18.0474 15.5384 17.6569 15.9289L11.2929 22.2929ZM36 22L12 22L12 24L36 24L36 22Z" fill="black"/>
</svg>
